<svg width="810" height="287" viewBox="0 0 810 287" fill="none" xmlns="http://www.w3.org/2000/svg">
<path d="M28.5903 270.498C28.869 270.498 29.113 270.609 29.322 270.831L31.3343 272.954C29.8012 274.694 27.9369 276.05 25.7417 277.022C23.5639 277.994 20.9244 278.481 17.8232 278.481C15.1401 278.481 12.701 278.029 10.5058 277.125C8.31052 276.204 6.43761 274.924 4.88701 273.287C3.33641 271.633 2.13425 269.654 1.28055 267.352C0.426851 265.049 0 262.516 0 259.753C0 256.99 0.444273 254.457 1.33282 252.155C2.22137 249.852 3.46707 247.874 5.06994 246.219C6.69023 244.565 8.62413 243.286 10.8716 242.382C13.1191 241.461 15.6018 241 18.3197 241C20.9854 241 23.3374 241.418 25.3758 242.254C27.4143 243.089 29.2088 244.224 30.7594 245.656L29.0868 247.933C28.9823 248.104 28.8429 248.249 28.6687 248.368C28.5119 248.471 28.2941 248.522 28.0153 248.522C27.7017 248.522 27.3184 248.36 26.8655 248.036C26.4125 247.694 25.8201 247.319 25.0884 246.91C24.3566 246.501 23.4419 246.134 22.3443 245.81C21.2467 245.469 19.8965 245.298 18.2936 245.298C16.3597 245.298 14.5913 245.631 12.9885 246.296C11.3856 246.944 10.0005 247.891 8.8332 249.136C7.68331 250.381 6.78606 251.899 6.14142 253.69C5.49679 255.481 5.17448 257.502 5.17448 259.753C5.17448 262.039 5.5055 264.077 6.16756 265.868C6.84703 267.659 7.76171 269.176 8.9116 270.422C10.0789 271.65 11.4466 272.588 13.0146 273.236C14.6 273.884 16.3074 274.208 18.1368 274.208C19.2518 274.208 20.2536 274.148 21.1422 274.029C22.0481 273.892 22.8757 273.688 23.6249 273.415C24.3915 273.142 25.0971 272.801 25.7417 272.392C26.4038 271.965 27.0571 271.462 27.7017 270.882C27.9979 270.626 28.2941 270.498 28.5903 270.498Z" fill="white"/>
<path d="M71.0992 259.753C71.0992 262.499 70.655 265.023 69.7664 267.326C68.8779 269.611 67.6235 271.581 66.0032 273.236C64.3829 274.89 62.4315 276.178 60.1492 277.099C57.8843 278.003 55.3754 278.455 52.6227 278.455C49.8699 278.455 47.3611 278.003 45.0962 277.099C42.8313 276.178 40.8887 274.89 39.2684 273.236C37.6481 271.581 36.3937 269.611 35.5051 267.326C34.6166 265.023 34.1723 262.499 34.1723 259.753C34.1723 257.007 34.6166 254.491 35.5051 252.206C36.3937 249.903 37.6481 247.925 39.2684 246.27C40.8887 244.599 42.8313 243.303 45.0962 242.382C47.3611 241.461 49.8699 241 52.6227 241C55.3754 241 57.8843 241.461 60.1492 242.382C62.4315 243.303 64.3829 244.599 66.0032 246.27C67.6235 247.925 68.8779 249.903 69.7664 252.206C70.655 254.491 71.0992 257.007 71.0992 259.753ZM65.8986 259.753C65.8986 257.502 65.585 255.481 64.9578 253.69C64.3306 251.899 63.4421 250.389 62.2922 249.161C61.1423 247.916 59.7485 246.961 58.1108 246.296C56.4731 245.631 54.6437 245.298 52.6227 245.298C50.6191 245.298 48.7985 245.631 47.1607 246.296C45.523 246.961 44.1205 247.916 42.9532 249.161C41.8033 250.389 40.9148 251.899 40.2876 253.69C39.6604 255.481 39.3468 257.502 39.3468 259.753C39.3468 262.004 39.6604 264.026 40.2876 265.816C40.9148 267.59 41.8033 269.1 42.9532 270.345C44.1205 271.573 45.523 272.519 47.1607 273.185C48.7985 273.833 50.6191 274.157 52.6227 274.157C54.6437 274.157 56.4731 273.833 58.1108 273.185C59.7485 272.519 61.1423 271.573 62.2922 270.345C63.4421 269.1 64.3306 267.59 64.9578 265.816C65.585 264.026 65.8986 262.004 65.8986 259.753Z" fill="white"/>
<path d="M99.1489 250.415C99.1489 252.257 98.6785 253.877 97.7377 255.276C96.8143 256.674 95.5076 257.766 93.8176 258.551C94.7758 258.943 95.647 259.42 96.431 259.983C97.215 260.546 97.8857 261.186 98.4433 261.902C99.0182 262.618 99.4538 263.403 99.75 264.256C100.064 265.109 100.22 266.004 100.22 266.942C100.22 268.545 99.9155 270.046 99.3057 271.445C98.6959 272.844 97.8074 274.063 96.64 275.103C95.4902 276.127 94.0702 276.937 92.3802 277.534C90.6903 278.131 88.7651 278.429 86.6047 278.429C83.9216 278.429 81.5086 278.003 79.3657 277.15C77.2227 276.28 75.3846 275.112 73.8514 273.645L75.3149 271.291C75.4543 271.104 75.6285 270.95 75.8376 270.831C76.0467 270.694 76.2732 270.626 76.5171 270.626C76.8829 270.626 77.3185 270.822 77.8238 271.215C78.329 271.59 78.9736 272.008 79.7577 272.468C80.5417 272.929 81.4912 273.355 82.6062 273.747C83.7387 274.123 85.1151 274.31 86.7354 274.31C88.1117 274.31 89.34 274.148 90.4202 273.824C91.5178 273.5 92.4325 273.031 93.1643 272.417C93.9134 271.803 94.4797 271.053 94.8629 270.166C95.2637 269.279 95.464 268.281 95.464 267.172C95.464 266.217 95.2724 265.339 94.8891 264.537C94.5232 263.736 93.9831 263.053 93.2688 262.491C92.5545 261.911 91.6833 261.467 90.6554 261.16C89.6275 260.836 88.4689 260.674 87.1796 260.674H82.0574V256.606H86.9706C88.0333 256.606 89.0177 256.478 89.9237 256.222C90.8471 255.967 91.6311 255.591 92.2757 255.097C92.9378 254.602 93.4517 253.997 93.8176 253.28C94.2009 252.564 94.3925 251.745 94.3925 250.824C94.3925 249.989 94.2183 249.221 93.8699 248.522C93.5214 247.822 93.0162 247.225 92.3541 246.731C91.6921 246.219 90.8819 245.827 89.9237 245.554C88.9654 245.281 87.8765 245.145 86.657 245.145C85.2457 245.145 84.0436 245.29 83.0505 245.58C82.0574 245.869 81.2211 246.194 80.5417 246.552C79.8622 246.893 79.3047 247.208 78.8691 247.498C78.451 247.788 78.0851 247.933 77.7715 247.933C77.4927 247.933 77.2662 247.874 77.092 247.754C76.9178 247.635 76.7523 247.439 76.5955 247.166L75.3672 244.838C76.7784 243.61 78.4161 242.671 80.2803 242.023C82.1445 241.375 84.2614 241.051 86.6308 241.051C88.5647 241.051 90.2983 241.281 91.8314 241.742C93.382 242.202 94.6974 242.851 95.7776 243.686C96.8578 244.522 97.6854 245.511 98.2603 246.654C98.8527 247.797 99.1489 249.05 99.1489 250.415Z" fill="white"/>
<path d="M136.53 241.409V274.182H142.646V285.516C142.646 285.96 142.498 286.318 142.201 286.591C141.905 286.864 141.513 287 141.025 287H138.02V278.071H107.835V285.516C107.835 285.96 107.679 286.318 107.365 286.591C107.069 286.864 106.686 287 106.215 287H103.184V274.182H106.999C107.539 273.927 108.079 273.517 108.619 272.954C109.16 272.374 109.674 271.556 110.161 270.498C110.667 269.424 111.137 268.076 111.573 266.456C112.008 264.836 112.4 262.857 112.749 260.521C113.114 258.167 113.428 255.421 113.689 252.283C113.951 249.144 114.151 245.52 114.291 241.409H136.53ZM119.047 245.324C118.838 249.519 118.533 253.195 118.132 256.35C117.749 259.506 117.296 262.243 116.773 264.563C116.251 266.865 115.667 268.801 115.022 270.37C114.378 271.923 113.689 273.193 112.958 274.182H131.434V245.324H119.047Z" fill="white"/>
<path d="M179.083 278.071H175.163C174.71 278.071 174.344 277.96 174.065 277.739C173.787 277.517 173.577 277.235 173.438 276.894L169.936 268.042H153.132L149.63 276.894C149.526 277.201 149.325 277.474 149.029 277.713C148.733 277.952 148.358 278.071 147.905 278.071H144.011L158.986 241.409H164.108L179.083 278.071ZM154.543 264.461H168.525L162.645 249.545C162.453 249.102 162.262 248.59 162.07 248.01C161.896 247.43 161.713 246.808 161.521 246.142C161.347 246.808 161.164 247.439 160.972 248.036C160.798 248.615 160.615 249.127 160.423 249.571L154.543 264.461Z" fill="white"/>
<path d="M183.96 278.071V241.409H195.903C198.203 241.409 200.18 241.631 201.835 242.075C203.508 242.518 204.875 243.149 205.938 243.968C207.018 244.786 207.811 245.793 208.316 246.987C208.822 248.164 209.074 249.494 209.074 250.978C209.074 251.882 208.926 252.752 208.63 253.587C208.351 254.423 207.924 255.199 207.349 255.915C206.774 256.632 206.043 257.271 205.154 257.834C204.283 258.397 203.255 258.858 202.07 259.216C204.806 259.745 206.87 260.708 208.264 262.107C209.658 263.505 210.355 265.347 210.355 267.633C210.355 269.185 210.059 270.601 209.466 271.88C208.891 273.159 208.038 274.259 206.905 275.18C205.79 276.101 204.414 276.818 202.776 277.329C201.138 277.824 199.274 278.071 197.183 278.071H183.96ZM189.004 261.365V274.131H197.105C198.551 274.131 199.797 273.969 200.842 273.645C201.887 273.321 202.741 272.869 203.403 272.289C204.083 271.692 204.579 270.993 204.893 270.191C205.206 269.373 205.363 268.477 205.363 267.505C205.363 265.612 204.675 264.119 203.299 263.028C201.922 261.919 199.858 261.365 197.105 261.365H189.004ZM189.004 257.834H195.694C197.122 257.834 198.359 257.681 199.405 257.374C200.468 257.067 201.339 256.64 202.018 256.095C202.715 255.549 203.229 254.892 203.56 254.125C203.891 253.34 204.057 252.487 204.057 251.566C204.057 249.4 203.395 247.822 202.07 246.833C200.746 245.827 198.69 245.324 195.903 245.324H189.004V257.834Z" fill="white"/>
<path d="M247.633 278.071H243.713C243.26 278.071 242.894 277.96 242.615 277.739C242.336 277.517 242.127 277.235 241.988 276.894L238.486 268.042H221.682L218.18 276.894C218.076 277.201 217.875 277.474 217.579 277.713C217.283 277.952 216.908 278.071 216.455 278.071H212.561L227.536 241.409H232.658L247.633 278.071ZM223.093 264.461H237.075L231.195 249.545C231.003 249.102 230.812 248.59 230.62 248.01C230.446 247.43 230.263 246.808 230.071 246.142C229.897 246.808 229.714 247.439 229.522 248.036C229.348 248.615 229.165 249.127 228.973 249.571L223.093 264.461Z" fill="white"/>
<path d="M272.659 278.071V262.286H267.275C266.84 262.303 266.43 262.354 266.047 262.439C265.664 262.525 265.289 262.67 264.923 262.874C264.557 263.079 264.191 263.36 263.826 263.719C263.477 264.06 263.12 264.486 262.754 264.998L254.627 276.306C254.313 276.852 253.886 277.287 253.346 277.611C252.806 277.918 252.17 278.071 251.438 278.071H247.623L257.318 264.691C258.364 263.19 259.592 262.124 261.003 261.493C259.505 261.22 258.198 260.793 257.083 260.214C255.968 259.634 255.036 258.934 254.287 258.116C253.555 257.28 253.006 256.333 252.64 255.276C252.275 254.218 252.092 253.076 252.092 251.848C252.092 250.278 252.379 248.854 252.954 247.575C253.546 246.296 254.4 245.204 255.515 244.3C256.648 243.379 258.024 242.671 259.644 242.177C261.282 241.665 263.146 241.409 265.237 241.409H277.703V278.071H272.659ZM257.083 251.822C257.083 252.845 257.231 253.766 257.527 254.585C257.841 255.387 258.32 256.069 258.965 256.632C259.627 257.195 260.472 257.63 261.5 257.937C262.545 258.227 263.791 258.372 265.237 258.372H272.659V245.349H265.237C263.791 245.349 262.554 245.503 261.526 245.81C260.498 246.117 259.653 246.56 258.991 247.14C258.329 247.703 257.841 248.385 257.527 249.187C257.231 249.971 257.083 250.85 257.083 251.822Z" fill="white"/>
<path d="M330.984 278.071H325.914V261.39H305.713V278.071H300.643V241.409H305.713V257.758H325.914V241.409H330.984V278.071Z" fill="white"/>
<path d="M375.159 259.753C375.159 262.499 374.715 265.023 373.826 267.326C372.938 269.611 371.683 271.581 370.063 273.236C368.443 274.89 366.491 276.178 364.209 277.099C361.944 278.003 359.435 278.455 356.682 278.455C353.93 278.455 351.421 278.003 349.156 277.099C346.891 276.178 344.948 274.89 343.328 273.236C341.708 271.581 340.453 269.611 339.565 267.326C338.676 265.023 338.232 262.499 338.232 259.753C338.232 257.007 338.676 254.491 339.565 252.206C340.453 249.903 341.708 247.925 343.328 246.27C344.948 244.599 346.891 243.303 349.156 242.382C351.421 241.461 353.93 241 356.682 241C359.435 241 361.944 241.461 364.209 242.382C366.491 243.303 368.443 244.599 370.063 246.27C371.683 247.925 372.938 249.903 373.826 252.206C374.715 254.491 375.159 257.007 375.159 259.753ZM369.958 259.753C369.958 257.502 369.645 255.481 369.018 253.69C368.39 251.899 367.502 250.389 366.352 249.161C365.202 247.916 363.808 246.961 362.17 246.296C360.533 245.631 358.703 245.298 356.682 245.298C354.679 245.298 352.858 245.631 351.22 246.296C349.583 246.961 348.18 247.916 347.013 249.161C345.863 250.389 344.974 251.899 344.347 253.69C343.72 255.481 343.406 257.502 343.406 259.753C343.406 262.004 343.72 264.026 344.347 265.816C344.974 267.59 345.863 269.1 347.013 270.345C348.18 271.573 349.583 272.519 351.22 273.185C352.858 273.833 354.679 274.157 356.682 274.157C358.703 274.157 360.533 273.833 362.17 273.185C363.808 272.519 365.202 271.573 366.352 270.345C367.502 269.1 368.39 267.59 369.018 265.816C369.645 264.026 369.958 262.004 369.958 259.753Z" fill="white"/>
<path d="M382.413 278.071V241.409H394.356C396.656 241.409 398.633 241.631 400.288 242.075C401.961 242.518 403.328 243.149 404.391 243.968C405.471 244.786 406.264 245.793 406.769 246.987C407.275 248.164 407.527 249.494 407.527 250.978C407.527 251.882 407.379 252.752 407.083 253.587C406.804 254.423 406.377 255.199 405.802 255.915C405.227 256.632 404.496 257.271 403.607 257.834C402.736 258.397 401.708 258.858 400.523 259.216C403.259 259.745 405.323 260.708 406.717 262.107C408.111 263.505 408.808 265.347 408.808 267.633C408.808 269.185 408.512 270.601 407.919 271.88C407.344 273.159 406.491 274.259 405.358 275.18C404.243 276.101 402.867 276.818 401.229 277.329C399.591 277.824 397.727 278.071 395.636 278.071H382.413ZM387.456 261.365V274.131H395.558C397.004 274.131 398.25 273.969 399.295 273.645C400.34 273.321 401.194 272.869 401.856 272.289C402.536 271.692 403.032 270.993 403.346 270.191C403.659 269.373 403.816 268.477 403.816 267.505C403.816 265.612 403.128 264.119 401.752 263.028C400.375 261.919 398.311 261.365 395.558 261.365H387.456ZM387.456 257.834H394.147C395.575 257.834 396.812 257.681 397.858 257.374C398.92 257.067 399.792 256.64 400.471 256.095C401.168 255.549 401.682 254.892 402.013 254.125C402.344 253.34 402.509 252.487 402.509 251.566C402.509 249.4 401.847 247.822 400.523 246.833C399.199 245.827 397.143 245.324 394.356 245.324H387.456V257.834Z" fill="white"/>
<path d="M419.51 274.285C419.946 274.285 420.381 274.242 420.817 274.157C421.253 274.055 421.671 273.884 422.071 273.645C422.472 273.406 422.855 273.091 423.221 272.699C423.587 272.289 423.918 271.778 424.214 271.164L426.044 267.428L410.991 241.409H415.721C416.174 241.409 416.531 241.52 416.792 241.742C417.054 241.947 417.28 242.22 417.472 242.561L426.723 259.19C427.368 260.401 427.891 261.629 428.291 262.874C428.465 262.26 428.675 261.646 428.918 261.032C429.162 260.418 429.432 259.804 429.729 259.19L437.595 242.561C437.734 242.271 437.943 242.006 438.222 241.768C438.518 241.529 438.884 241.409 439.32 241.409H443.501L428.291 273.287C427.821 274.293 427.307 275.129 426.749 275.794C426.209 276.442 425.626 276.963 424.998 277.355C424.371 277.73 423.692 277.994 422.96 278.148C422.228 278.319 421.444 278.404 420.608 278.404C419.667 278.404 418.944 278.319 418.439 278.148C417.934 277.994 417.681 277.756 417.681 277.432V274.285H419.51Z" fill="white"/>
<path d="M453.378 257.809H461.48C461.671 255.336 462.203 253.067 463.074 251.003C463.963 248.94 465.139 247.166 466.602 245.682C468.083 244.198 469.825 243.047 471.829 242.228C473.832 241.409 476.054 241 478.493 241C481.071 241 483.406 241.461 485.497 242.382C487.605 243.303 489.399 244.599 490.88 246.27C492.379 247.925 493.529 249.903 494.33 252.206C495.149 254.491 495.558 257.007 495.558 259.753C495.558 262.499 495.149 265.023 494.33 267.326C493.529 269.611 492.379 271.581 490.88 273.236C489.399 274.873 487.605 276.152 485.497 277.073C483.406 277.977 481.071 278.429 478.493 278.429C476.054 278.429 473.832 278.029 471.829 277.227C469.825 276.408 468.083 275.265 466.602 273.799C465.139 272.332 463.963 270.575 463.074 268.528C462.203 266.465 461.671 264.188 461.48 261.697H453.378V278.071H448.308V241.409H453.378V257.809ZM478.493 274.285C480.305 274.285 481.943 273.952 483.406 273.287C484.87 272.622 486.115 271.667 487.143 270.422C488.188 269.159 488.99 267.633 489.547 265.842C490.105 264.034 490.384 262.004 490.384 259.753C490.384 257.502 490.105 255.481 489.547 253.69C488.99 251.882 488.188 250.347 487.143 249.085C486.115 247.822 484.87 246.859 483.406 246.194C481.943 245.511 480.305 245.17 478.493 245.17C476.664 245.17 475.017 245.511 473.554 246.194C472.09 246.859 470.836 247.822 469.79 249.085C468.762 250.347 467.97 251.882 467.412 253.69C466.855 255.481 466.576 257.502 466.576 259.753C466.576 262.004 466.855 264.034 467.412 265.842C467.97 267.633 468.762 269.159 469.79 270.422C470.836 271.667 472.09 272.622 473.554 273.287C475.017 273.952 476.664 274.285 478.493 274.285Z" fill="white"/>
<path d="M521.29 257.476H525.184C525.968 257.476 526.63 257.357 527.17 257.118C527.727 256.879 528.276 256.41 528.816 255.711L538.616 242.816C538.878 242.407 539.191 242.075 539.557 241.819C539.94 241.546 540.385 241.409 540.89 241.409H545.15L533.834 256.478C533.398 257.092 532.902 257.595 532.344 257.988C531.804 258.38 531.203 258.687 530.541 258.909C531.464 259.148 532.24 259.531 532.867 260.06C533.494 260.572 534.104 261.288 534.696 262.209L546.143 278.071H541.596C541.09 278.071 540.655 277.943 540.289 277.687C539.94 277.415 539.609 277.022 539.296 276.511L529.391 263.079C528.938 262.414 528.45 261.953 527.928 261.697C527.405 261.425 526.691 261.288 525.785 261.288H521.29V278.071H516.246V241.409H521.29V257.476Z" fill="white"/>
<path d="M580.075 241.409V278.071H575.005V245.324H562.618C562.374 250.031 562.043 254.116 561.625 257.578C561.224 261.041 560.728 264 560.135 266.456C559.56 268.912 558.898 270.916 558.149 272.468C557.418 274.003 556.607 275.214 555.719 276.101C554.848 276.988 553.907 277.594 552.896 277.918C551.886 278.242 550.814 278.404 549.682 278.404C548.741 278.404 548.018 278.319 547.513 278.148C547.008 277.994 546.755 277.756 546.755 277.432V274.285H548.584C549.281 274.285 549.969 274.157 550.649 273.901C551.328 273.628 551.982 273.091 552.609 272.289C553.236 271.488 553.828 270.345 554.386 268.861C554.944 267.377 555.449 265.416 555.902 262.977C556.355 260.538 556.747 257.561 557.078 254.048C557.409 250.517 557.661 246.304 557.836 241.409H580.075Z" fill="white"/>
<path d="M620.038 278.071H616.118C615.665 278.071 615.299 277.96 615.021 277.739C614.742 277.517 614.533 277.235 614.393 276.894L610.892 268.042H594.088L590.586 276.894C590.481 277.201 590.281 277.474 589.985 277.713C589.688 277.952 589.314 278.071 588.861 278.071H584.967L599.942 241.409H605.064L620.038 278.071ZM595.499 264.461H609.48L603.6 249.545C603.409 249.102 603.217 248.59 603.025 248.01C602.851 247.43 602.668 246.808 602.477 246.142C602.302 246.808 602.119 247.439 601.928 248.036C601.753 248.615 601.571 249.127 601.379 249.571L595.499 264.461Z" fill="white"/>
<path d="M650.287 270.498C650.566 270.498 650.81 270.609 651.019 270.831L653.031 272.954C651.498 274.694 649.634 276.05 647.438 277.022C645.261 277.994 642.621 278.481 639.52 278.481C636.837 278.481 634.398 278.029 632.202 277.125C630.007 276.204 628.134 274.924 626.584 273.287C625.033 271.633 623.831 269.654 622.977 267.352C622.123 265.049 621.697 262.516 621.697 259.753C621.697 256.99 622.141 254.457 623.03 252.155C623.918 249.852 625.164 247.874 626.767 246.219C628.387 244.565 630.321 243.286 632.568 242.382C634.816 241.461 637.299 241 640.016 241C642.682 241 645.034 241.418 647.073 242.254C649.111 243.089 650.905 244.224 652.456 245.656L650.784 247.933C650.679 248.104 650.54 248.249 650.365 248.368C650.209 248.471 649.991 248.522 649.712 248.522C649.398 248.522 649.015 248.36 648.562 248.036C648.109 247.694 647.517 247.319 646.785 246.91C646.053 246.501 645.139 246.134 644.041 245.81C642.943 245.469 641.593 245.298 639.99 245.298C638.056 245.298 636.288 245.631 634.685 246.296C633.082 246.944 631.697 247.891 630.53 249.136C629.38 250.381 628.483 251.899 627.838 253.69C627.193 255.481 626.871 257.502 626.871 259.753C626.871 262.039 627.202 264.077 627.864 265.868C628.544 267.659 629.458 269.176 630.608 270.422C631.776 271.65 633.143 272.588 634.711 273.236C636.297 273.884 638.004 274.208 639.833 274.208C640.949 274.208 641.95 274.148 642.839 274.029C643.745 273.892 644.572 273.688 645.322 273.415C646.088 273.142 646.794 272.801 647.438 272.392C648.1 271.965 648.754 271.462 649.398 270.882C649.695 270.626 649.991 270.498 650.287 270.498Z" fill="white"/>
<path d="M684.485 270.498C684.764 270.498 685.008 270.609 685.217 270.831L687.229 272.954C685.696 274.694 683.832 276.05 681.637 277.022C679.459 277.994 676.82 278.481 673.718 278.481C671.035 278.481 668.596 278.029 666.401 277.125C664.206 276.204 662.333 274.924 660.782 273.287C659.232 271.633 658.029 269.654 657.176 267.352C656.322 265.049 655.895 262.516 655.895 259.753C655.895 256.99 656.339 254.457 657.228 252.155C658.117 249.852 659.362 247.874 660.965 246.219C662.585 244.565 664.519 243.286 666.767 242.382C669.014 241.461 671.497 241 674.215 241C676.88 241 679.232 241.418 681.271 242.254C683.309 243.089 685.104 244.224 686.654 245.656L684.982 247.933C684.877 248.104 684.738 248.249 684.564 248.368C684.407 248.471 684.189 248.522 683.91 248.522C683.597 248.522 683.214 248.36 682.761 248.036C682.308 247.694 681.715 247.319 680.983 246.91C680.252 246.501 679.337 246.134 678.239 245.81C677.142 245.469 675.792 245.298 674.189 245.298C672.255 245.298 670.486 245.631 668.884 246.296C667.281 246.944 665.896 247.891 664.728 249.136C663.578 250.381 662.681 251.899 662.036 253.69C661.392 255.481 661.07 257.502 661.07 259.753C661.07 262.039 661.401 264.077 662.063 265.868C662.742 267.659 663.657 269.176 664.807 270.422C665.974 271.65 667.342 272.588 668.91 273.236C670.495 273.884 672.203 274.208 674.032 274.208C675.147 274.208 676.149 274.148 677.037 274.029C677.943 273.892 678.771 273.688 679.52 273.415C680.287 273.142 680.992 272.801 681.637 272.392C682.299 271.965 682.952 271.462 683.597 270.882C683.893 270.626 684.189 270.498 684.485 270.498Z" fill="white"/>
<path d="M717.412 242.97C717.656 242.578 717.97 242.22 718.353 241.895C718.736 241.571 719.181 241.409 719.686 241.409H723.449V278.071H718.379V252.027C718.379 251.31 718.397 250.56 718.431 249.775C718.466 248.974 718.545 248.129 718.667 247.242C718.37 248.01 718.048 248.726 717.7 249.392C717.369 250.04 717.038 250.611 716.707 251.106L699.145 276.511C698.901 276.903 698.587 277.261 698.204 277.585C697.821 277.909 697.376 278.071 696.871 278.071H693.108V241.409H698.178V267.479C698.178 268.213 698.16 268.98 698.126 269.782C698.091 270.567 698.012 271.411 697.89 272.315C698.187 271.53 698.5 270.814 698.831 270.166C699.18 269.501 699.519 268.904 699.85 268.375L717.412 242.97Z" fill="white"/>
<path d="M738.067 257.476H741.961C742.745 257.476 743.407 257.357 743.947 257.118C744.504 256.879 745.053 256.41 745.593 255.711L755.393 242.816C755.655 242.407 755.969 242.075 756.334 241.819C756.718 241.546 757.162 241.409 757.667 241.409H761.927L750.611 256.478C750.175 257.092 749.679 257.595 749.121 257.988C748.581 258.38 747.98 258.687 747.318 258.909C748.242 259.148 749.017 259.531 749.644 260.06C750.271 260.572 750.881 261.288 751.473 262.209L762.92 278.071H758.373C757.867 278.071 757.432 277.943 757.066 277.687C756.718 277.415 756.387 277.022 756.073 276.511L746.168 263.079C745.715 262.414 745.227 261.953 744.705 261.697C744.182 261.425 743.468 261.288 742.562 261.288H738.067V278.071H733.023V241.409H738.067V257.476Z" fill="white"/>
<path d="M772.009 274.285C772.445 274.285 772.88 274.242 773.316 274.157C773.752 274.055 774.17 273.884 774.57 273.645C774.971 273.406 775.354 273.091 775.72 272.699C776.086 272.289 776.417 271.778 776.713 271.164L778.543 267.428L763.49 241.409H768.22C768.673 241.409 769.03 241.52 769.291 241.742C769.553 241.947 769.779 242.22 769.971 242.561L779.222 259.19C779.867 260.401 780.389 261.629 780.79 262.874C780.964 262.26 781.173 261.646 781.417 261.032C781.661 260.418 781.931 259.804 782.228 259.19L790.094 242.561C790.233 242.271 790.442 242.006 790.721 241.768C791.017 241.529 791.383 241.409 791.819 241.409H796L780.79 273.287C780.32 274.293 779.806 275.129 779.248 275.794C778.708 276.442 778.125 276.963 777.497 277.355C776.87 277.73 776.191 277.994 775.459 278.148C774.727 278.319 773.943 278.404 773.107 278.404C772.166 278.404 771.443 278.319 770.938 278.148C770.432 277.994 770.18 277.756 770.18 277.432V274.285H772.009Z" fill="white"/>
<path d="M76.0348 0C83.8502 0 91.0143 1.18207 97.5272 3.5462C104.121 5.82881 109.779 9.13044 114.501 13.4511C119.304 17.6902 123.049 22.8669 125.736 28.981C128.422 35.0951 129.766 41.9837 129.766 49.6467C129.766 56.1685 128.789 62.2011 126.835 67.7446C124.963 73.288 122.398 78.587 119.142 83.6413C115.885 88.6957 112.059 93.6277 107.663 98.4375C103.348 103.166 98.789 107.976 93.9858 112.867L51.4895 156.399C54.9902 155.503 58.4908 154.769 61.9915 154.198C65.5735 153.546 68.9521 153.22 72.1271 153.22H123.782C126.631 153.22 128.87 154.076 130.498 155.788C132.127 157.418 132.941 159.538 132.941 162.147V178.043H14V169.117C14 167.323 14.3663 165.448 15.099 163.492C15.8317 161.535 17.0122 159.742 18.6404 158.111L73.3483 103.207C77.9887 98.5598 82.0999 94.1168 85.6819 89.8777C89.3454 85.6386 92.439 81.3995 94.9627 77.1603C97.5679 72.9212 99.5217 68.6413 100.824 64.3206C102.208 59.9185 102.9 55.3125 102.9 50.5027C102.9 45.856 102.168 41.7799 100.702 38.2745C99.3182 34.6875 97.3643 31.7527 94.8406 29.4701C92.3983 27.106 89.4268 25.3533 85.9262 24.212C82.5069 22.9891 78.7213 22.3777 74.5694 22.3777C70.5803 22.3777 66.8761 22.9484 63.4569 24.0897C60.119 25.231 57.1069 26.8207 54.4203 28.8587C51.8152 30.8967 49.6171 33.3424 47.8261 36.1956C46.1164 38.9674 44.8546 42.0245 44.0405 45.3669C42.8193 48.7092 41.2318 50.9511 39.278 52.0924C37.4055 53.2337 34.6376 53.4783 30.9741 52.8261L17.175 50.3804C18.3962 42.0652 20.6757 34.769 24.0135 28.4918C27.4327 22.2147 31.7068 16.9973 36.8356 12.8397C41.9645 8.60054 47.8261 5.4212 54.4203 3.30164C61.096 1.10055 68.3008 0 76.0348 0Z" fill="white"/>
<path d="M266.31 13.3288C266.31 17.0788 265.13 20.1359 262.769 22.5C260.408 24.8641 256.46 26.0462 250.924 26.0462H199.391L192.308 67.0109C200.693 65.2989 208.468 64.4429 215.632 64.4429C224.832 64.4429 232.932 65.8288 239.933 68.6005C247.016 71.2908 252.918 75.0408 257.64 79.8505C262.443 84.6603 266.025 90.3261 268.386 96.8478C270.828 103.288 272.05 110.299 272.05 117.88C272.05 127.255 270.421 135.774 267.165 143.438C263.909 151.101 259.39 157.663 253.61 163.125C247.83 168.505 240.992 172.663 233.095 175.598C225.279 178.533 216.813 180 207.695 180C202.322 180 197.193 179.47 192.308 178.41C187.505 177.351 182.987 175.924 178.753 174.13C174.52 172.255 170.612 170.136 167.03 167.772C163.448 165.326 160.232 162.799 157.383 160.19L165.443 148.94C167.152 146.495 169.432 145.272 172.281 145.272C174.072 145.272 176.026 145.924 178.143 147.228C180.259 148.533 182.702 149.959 185.47 151.508C188.319 152.976 191.657 154.361 195.483 155.666C199.309 156.97 203.868 157.622 209.16 157.622C214.94 157.622 220.11 156.685 224.669 154.81C229.228 152.935 233.054 150.326 236.148 146.984C239.323 143.56 241.724 139.484 243.352 134.755C244.981 130.027 245.795 124.851 245.795 119.226C245.795 114.09 245.021 109.484 243.475 105.408C242.009 101.332 239.77 97.8668 236.758 95.0136C233.827 92.1603 230.123 90 225.646 88.5326C221.168 86.9837 215.999 86.2092 210.137 86.2092C205.822 86.2092 201.385 86.5761 196.826 87.3098C192.349 88.0435 187.79 89.1848 183.149 90.7337L166.786 86.087L181.196 1.95653H266.31V13.3288Z" fill="white"/>
<path d="M506.415 1.95653V178.043H477.717V24.3342H424.963C423.824 46.6712 422.236 66.0326 420.201 82.4185C418.166 98.7228 415.723 112.622 412.874 124.117C410.106 135.611 406.931 144.986 403.349 152.242C399.767 159.497 395.859 165.163 391.626 169.239C387.392 173.315 382.833 176.087 377.949 177.554C373.064 179.022 367.895 179.755 362.44 179.755C352.182 179.755 347.053 177.921 347.053 174.253V156.155H356.09C359.102 156.155 362.114 155.625 365.127 154.565C368.22 153.424 371.192 151.06 374.041 147.473C376.89 143.886 379.618 138.709 382.223 131.943C384.828 125.095 387.189 115.965 389.306 104.552C391.422 93.1386 393.213 79.0761 394.679 62.3641C396.225 45.5707 397.365 25.4348 398.098 1.95653H506.415Z" fill="white"/>
<path d="M657.924 1.95653V25.0679H576.961V78.1386H641.683V100.516H576.961V154.932H658.046L657.924 178.043H548.264V1.95653H657.924Z" fill="white"/>
<path d="M810 1.95653V25.8016H755.17V178.043H726.717V25.8016H671.765V1.95653H810Z" fill="white"/>
</svg>
