<svg width="16" height="17" viewBox="0 0 16 17" fill="none" xmlns="http://www.w3.org/2000/svg">
<path d="M2.05366 0H13.9463C15.0758 0 15.9998 0.844022 15.9998 2.07275V14.0773C15.9998 15.306 15.0758 16.15 13.9463 16.15H2.05366C0.923908 16.15 0 15.306 0 14.0773V2.07275C0 0.844022 0.923908 0 2.05366 0ZM11.6553 1.79433C11.2591 1.79433 10.9353 2.12133 10.9353 2.52145V4.26173C10.9353 4.66169 11.2591 4.98885 11.6553 4.98885H13.4637C13.8599 4.98885 14.1841 4.66169 14.1841 4.26173V2.52145C14.1841 2.12133 13.8599 1.79433 13.4637 1.79433H11.6553ZM14.1916 6.82978H12.7834C12.9166 7.26887 12.9888 7.73399 12.9888 8.2152C12.9888 10.9015 10.7618 13.079 8.0152 13.079C5.26877 13.079 3.04213 10.9015 3.04213 8.2152C3.04213 7.73366 3.11408 7.2687 3.24748 6.82978H1.778V13.6518C1.778 14.0048 2.06417 14.2938 2.41409 14.2938H13.5558C13.9058 14.2938 14.1919 14.005 14.1919 13.6518V6.82978H14.1916ZM8.01503 4.89715C6.24048 4.89715 4.80172 6.30413 4.80172 8.03993C4.80172 9.77573 6.24048 11.1827 8.01503 11.1827C9.78974 11.1827 11.2287 9.77573 11.2287 8.03993C11.2287 6.30413 9.78991 4.89715 8.01503 4.89715Z" fill="white"/>
</svg>
