<svg width="17" height="14" viewBox="0 0 17 14" fill="none" xmlns="http://www.w3.org/2000/svg">
<path d="M17 1.65642C16.3743 1.93751 15.7029 2.12814 14.9976 2.21324C15.7178 1.77597 16.2691 1.08239 16.5304 0.258473C15.8548 0.663419 15.1091 0.957461 14.3145 1.11686C13.6782 0.428658 12.7731 0 11.7692 0C9.84324 0 8.28165 1.5832 8.28165 3.53473C8.28165 3.81151 8.31246 4.08184 8.37196 4.34034C5.47401 4.19277 2.90431 2.78514 1.18445 0.646183C0.883807 1.16747 0.712779 1.77487 0.712779 2.42325C0.712779 3.64997 1.32892 4.73236 2.26375 5.36562C1.69222 5.34624 1.1547 5.18684 0.684112 4.92189V4.96605C0.684112 6.67849 1.88664 8.10766 3.48114 8.43294C3.18901 8.51264 2.88095 8.5568 2.56225 8.5568C2.33706 8.5568 2.11928 8.53418 1.90575 8.49109C2.34978 9.89659 3.63731 10.9187 5.16279 10.9467C3.96981 11.8944 2.46559 12.4577 0.831779 12.4577C0.550279 12.4577 0.273 12.4405 0 12.4093C1.54353 13.4141 3.37601 14 5.34551 14C11.7607 14 15.2674 8.61281 15.2674 3.94077L15.2557 3.48305C15.9409 2.98759 16.5336 2.3651 17 1.65642Z" fill="white"/>
</svg>
