<?xml version="1.0" encoding="utf-8"?>
<!-- Generator: Adobe Illustrator 21.0.2, SVG Export Plug-In . SVG Version: 6.00 Build 0)  -->
<svg version="1.1" id="Слой_1" xmlns="http://www.w3.org/2000/svg" xmlns:xlink="http://www.w3.org/1999/xlink" x="0px" y="0px"
	 viewBox="0 0 19 16" style="enable-background:new 0 0 19 16;" xml:space="preserve">
<style type="text/css">
	.st0{fill:#FFFFFF;}
</style>
<path class="st0" d="M9.5,16c0.3,0,0.5-0.1,0.7-0.3c0.8-0.6,1.5-1.2,2.2-1.8l0,0c1.9-1.5,3.6-2.9,4.7-4.2C18.4,8.3,19,6.9,19,5.4
	c0-1.5-0.5-2.8-1.5-3.8c-1-1-2.3-1.6-3.8-1.6c-1.1,0-2.1,0.3-3,1c-0.4,0.3-0.9,0.7-1.2,1.2C9.1,1.7,8.7,1.3,8.3,1
	c-0.9-0.6-1.9-1-3-1C3.8,0,2.5,0.6,1.5,1.6C0.5,2.6,0,3.9,0,5.4c0,1.5,0.6,2.9,1.9,4.4C3,11.1,4.7,12.4,6.6,14
	c0.7,0.5,1.4,1.1,2.2,1.8C9,15.9,9.2,16,9.5,16z"/>
</svg>
