<svg width="19" height="16" viewBox="0 0 19 16" fill="none" xmlns="http://www.w3.org/2000/svg">
<path d="M9.5 16C9.77049 16 10.0313 15.9072 10.2345 15.7388C11.0021 15.1035 11.7421 14.5065 12.395 13.9799L12.3983 13.9772C14.3125 12.4332 15.9654 11.0998 17.1155 9.7863C18.4012 8.31791 19 6.92567 19 5.40473C19 3.92701 18.4647 2.56372 17.4927 1.56581C16.5092 0.556101 15.1596 0 13.6922 0C12.5954 0 11.591 0.328199 10.7069 0.975406C10.2607 1.3021 9.85631 1.70192 9.5 2.16828C9.14355 1.70192 8.73926 1.3021 8.29293 0.975406C7.40883 0.328199 6.40441 0 5.30766 0C3.84039 0 2.49068 0.556101 1.50713 1.56581C0.535187 2.56372 0 3.92701 0 5.40473C0 6.92567 0.598679 8.31791 1.88432 9.78616C3.03442 11.0998 4.68723 12.433 6.60112 13.9769C7.25517 14.5043 7.99635 15.1023 8.76564 15.739C8.96873 15.9072 9.22965 16 9.5 16ZM13.6922 1.05348C14.8451 1.05348 15.9041 1.48897 16.6746 2.27983C17.4565 3.08263 17.8872 4.19236 17.8872 5.40473C17.8872 6.68391 17.3849 7.82794 16.2587 9.11412C15.1702 10.3574 13.5512 11.6633 11.6766 13.1755L11.6731 13.1782C11.0177 13.7069 10.2748 14.3062 9.50159 14.9461C8.72375 14.3049 7.97968 13.7047 7.32301 13.1752C5.44855 11.663 3.82966 10.3574 2.74117 9.11412C1.61513 7.82794 1.11285 6.68391 1.11285 5.40473C1.11285 4.19236 1.54352 3.08263 2.32542 2.27983C3.09573 1.48897 4.15495 1.05348 5.30766 1.05348C6.15218 1.05348 6.92757 1.30758 7.61221 1.80866C8.22234 2.25541 8.64735 2.82016 8.89654 3.21531C9.02468 3.41852 9.25024 3.53981 9.5 3.53981C9.74976 3.53981 9.97532 3.41852 10.1035 3.21531C10.3525 2.82016 10.7775 2.25541 11.3878 1.80866C12.0724 1.30758 12.8478 1.05348 13.6922 1.05348Z" fill="white"/>
</svg>
