<svg width="608" height="134" viewBox="0 0 608 134" fill="none" xmlns="http://www.w3.org/2000/svg">
<path fill-rule="evenodd" clip-rule="evenodd" d="M109.393 61.7889C109.393 62.5331 109.364 63.461 109.307 64.2873C108.055 82.4647 93.2491 97.1192 74.9378 97.2553C55.6446 97.3986 39.9634 81.6607 39.9634 62.2327V58.9595C44.3549 67.3489 53.6798 78.7577 64.8848 78.6508C80.3036 78.5033 97.4584 58.4497 103.874 58.4497C105.428 58.4497 106.805 58.9878 108.052 59.6713C109.143 60.2691 109.393 61.0025 109.393 61.7889Z" fill="#1B1918"/>
<path fill-rule="evenodd" clip-rule="evenodd" d="M108.752 50.8751C106.643 49.4584 103.811 48.1621 100.712 48.9944C94.6159 50.6313 85.9592 56.982 78.176 62.1001C68.5727 68.4142 61.4542 72.4087 55.784 71.6836C50.4929 71.0067 44.6646 62.5809 44.6646 62.5809C44.6646 62.5809 49.7555 65.8785 53.9488 65.5492C57.7849 65.2482 62.4573 63.3957 73.9513 55.5946C85.4465 47.7932 91.9798 44.0001 98.7693 44.8358C105.668 45.6856 108.752 50.8751 108.752 50.8751Z" fill="#1B1918"/>
<path fill-rule="evenodd" clip-rule="evenodd" d="M84.3966 37.5195C73.33 39.941 58.9487 55.3746 49.0052 56.0856C43.7828 56.4593 41.2561 55.0789 39.9634 54.3059V37.5195H84.3966Z" fill="#0086CC"/>
<path fill-rule="evenodd" clip-rule="evenodd" d="M141.278 71.1021H148.522V79.3731H156.46V71.1021H163.737V94.7897H156.46V85.1942H148.522V94.7897H141.278V71.1021Z" fill="white"/>
<path fill-rule="evenodd" clip-rule="evenodd" d="M168.559 71.1021H187.968V76.1631H175.836V79.9333H187.083V84.7618H175.836V89.431H188.33V94.7897H168.559V71.1021Z" fill="white"/>
<path fill-rule="evenodd" clip-rule="evenodd" d="M208.306 72.9209C215.431 73.6771 218.994 76.9079 218.994 82.6139C218.994 88.4432 215.431 91.6849 208.306 92.3399V94.7899H201.713V92.2728C194.588 91.6607 191.024 88.4432 191.024 82.6139C191.024 76.8951 194.588 73.6649 201.713 72.9209V71.1021H208.306V72.9209ZM208.306 87.3774C209.448 87.04 210.338 86.4475 210.966 85.5929C211.597 84.7391 211.91 83.7116 211.91 82.5163C211.91 81.3749 211.589 80.3414 210.944 79.4317C210.295 78.5219 209.413 77.8828 208.306 77.5187V87.3774ZM201.713 87.4427V77.6519C200.64 77.9649 199.762 78.5853 199.101 79.5065C198.442 80.4269 198.107 81.474 198.107 82.645C198.107 83.7425 198.438 84.7311 199.091 85.6057C199.755 86.4757 200.629 87.0865 201.713 87.4427Z" fill="white"/>
<path fill-rule="evenodd" clip-rule="evenodd" d="M220.891 71.1021H242.957V76.9583H235.549V94.7897H228.3V76.9583H220.891V71.1021Z" fill="white"/>
<path fill-rule="evenodd" clip-rule="evenodd" d="M266.965 94.7891V71.1021H254.879C252.636 71.1021 250.92 71.2939 249.738 71.6852C248.553 72.0704 247.598 72.7955 246.872 73.8427C246.145 74.8965 245.783 76.1772 245.783 77.6909C245.783 79.0047 246.064 80.1365 246.619 81.0934C247.17 82.0529 247.935 82.8254 248.915 83.4219C249.532 83.7943 250.384 84.1081 251.46 84.3593C250.597 84.6488 249.971 84.9344 249.575 85.2293C249.315 85.4211 248.927 85.84 248.417 86.4757C247.917 87.1074 247.574 87.5994 247.408 87.9456L243.884 94.7891H252.077L255.954 87.5645C256.444 86.6279 256.883 86.0211 257.272 85.7424C257.788 85.3774 258.386 85.1936 259.047 85.1936H259.688V94.7891H266.965ZM259.688 80.7285H256.618C256.293 80.7285 255.647 80.6187 254.696 80.4032C254.214 80.3097 253.822 80.0619 253.522 79.6584C253.216 79.2558 253.061 78.7998 253.061 78.278C253.061 77.5145 253.305 76.9234 253.783 76.5152C254.265 76.1031 255.166 75.8997 256.495 75.8997H259.688V80.7285Z" fill="white"/>
<path fill-rule="evenodd" clip-rule="evenodd" d="M271.812 71.1021H279.058V79.3731H286.996V71.1021H294.272V94.7897H286.996V85.1942H279.058V94.7897H271.812V71.1021Z" fill="white"/>
<path fill-rule="evenodd" clip-rule="evenodd" d="M298.177 82.9623C298.177 79.0979 299.241 76.0866 301.378 73.935C303.515 71.7789 306.49 70.7051 310.302 70.7051C314.21 70.7051 317.221 71.7629 319.338 73.8764C321.452 75.9929 322.505 78.9599 322.505 82.7697C322.505 85.538 322.046 87.8031 321.125 89.5754C320.201 91.3431 318.861 92.7219 317.117 93.7065C315.368 94.6943 313.192 95.1839 310.585 95.1839C307.943 95.1839 305.753 94.7611 304.011 93.9145C302.279 93.06 300.868 91.7107 299.792 89.8737C298.717 88.0341 298.177 85.7298 298.177 82.9623ZM305.422 82.977C305.422 85.3654 305.865 87.0853 306.747 88.1289C307.632 89.1707 308.833 89.6966 310.353 89.6966C311.91 89.6966 313.122 89.1827 313.977 88.16C314.831 87.1364 315.259 85.3063 315.259 82.6517C315.259 80.4263 314.813 78.7995 313.919 77.7721C313.025 76.7424 311.817 76.2321 310.287 76.2321C308.822 76.2321 307.64 76.7531 306.755 77.7963C305.865 78.8387 305.422 80.567 305.422 82.977Z" fill="white"/>
<path fill-rule="evenodd" clip-rule="evenodd" d="M348.869 71.1021V94.7897H342.047V81.7831L333.321 94.7897H326.441V71.1021H333.294V84.2064L342.086 71.1021H348.869ZM343.559 65.2808C343.333 66.6337 342.681 67.7272 341.613 68.5588C340.54 69.3929 339.262 69.8133 337.781 69.8133C336.306 69.8133 335.03 69.3929 333.95 68.5541C332.875 67.7157 332.229 66.6255 332.016 65.2808H334.771C335.226 66.6255 336.2 67.297 337.715 67.297C339.332 67.297 340.361 66.6255 340.804 65.2808H343.559Z" fill="white"/>
<path fill-rule="evenodd" clip-rule="evenodd" d="M363.019 71.1021H385.085V76.9583H377.677V94.7897H370.427V76.9583H363.019V71.1021Z" fill="white"/>
<path fill-rule="evenodd" clip-rule="evenodd" d="M388.337 71.1021H407.747V76.1631H395.614V79.9333H406.865V84.7618H395.614V89.431H408.108V94.7897H388.337V71.1021Z" fill="white"/>
<path fill-rule="evenodd" clip-rule="evenodd" d="M411.985 71.1021H424.051C426.678 71.1021 428.647 71.7296 429.957 72.9921C431.266 74.2548 431.919 76.0533 431.919 78.385C431.919 80.7796 431.205 82.6537 429.778 83.9984C428.352 85.3511 426.172 86.0205 423.24 86.0205H419.265V94.7897H411.985V71.1021ZM419.265 81.226H421.048C422.462 81.226 423.449 80.9762 424.016 80.4868C424.588 79.9965 424.871 79.3649 424.871 78.6006C424.871 77.856 424.626 77.2289 424.125 76.7105C423.635 76.19 422.706 75.9308 421.34 75.9308H419.265V81.226Z" fill="white"/>
<path fill-rule="evenodd" clip-rule="evenodd" d="M435.63 71.1021H445.199L448.843 85.5154L452.499 71.1021H462.026V94.7897H456.093V76.7308L451.513 94.7897H446.136L441.567 76.7308V94.7897H435.63V71.1021Z" fill="white"/>
<path fill-rule="evenodd" clip-rule="evenodd" d="M489.106 71.1021V94.7897H482.287V81.7831L473.557 94.7897H466.678V71.1021H473.531V84.2064L482.323 71.1021H489.106Z" fill="white"/>
<path fill-rule="evenodd" clip-rule="evenodd" d="M493.992 71.1021H501.236V79.3731H509.173V71.1021H516.451V94.7897H509.173V85.1942H501.236V94.7897H493.992V71.1021Z" fill="white"/>
<path fill-rule="evenodd" clip-rule="evenodd" d="M535.717 90.8856H527.496L526.318 94.7898H518.914L527.748 71.1035H535.689L544.486 94.7898H536.889L535.717 90.8856ZM534.182 85.7593L531.618 77.2453L529.045 85.7593H534.182Z" fill="white"/>
<path fill-rule="evenodd" clip-rule="evenodd" d="M568.352 94.7891H561.107V76.9234H555.436V84.2051C555.436 87.1995 555.275 89.4034 554.965 90.8067C554.646 92.2134 553.908 93.2444 552.751 93.8995C551.593 94.5582 549.725 94.8874 547.136 94.8874C546.352 94.8874 545.442 94.8019 544.417 94.6293V89.8269H545.505C546.484 89.8269 547.175 89.6068 547.579 89.1679C547.983 88.7334 548.189 87.9374 548.189 86.7733V71.1021H568.352V94.7891Z" fill="white"/>
<path fill-rule="evenodd" clip-rule="evenodd" d="M140.948 56.6115C140.948 56.0081 140.998 55.5273 141.098 55.1685C141.197 54.8108 141.435 54.3078 141.812 53.6586C142.588 52.2952 143.775 50.572 145.371 48.4912C146.413 47.1492 147.178 46.0652 147.666 45.2368C148.153 44.41 148.397 43.6268 148.397 42.8883C148.397 42.3071 148.22 41.8601 147.865 41.5463C147.51 41.233 147.034 41.0769 146.436 41.0769C145.792 41.0769 145.027 41.1771 144.14 41.3785C143.253 41.5799 142.555 41.8262 142.045 42.1166C141.735 41.4229 141.58 40.518 141.58 39.3989C141.58 38.8843 142.195 38.4426 143.426 38.0736C144.656 37.7047 146.036 37.5195 147.565 37.5195C149.383 37.5195 150.686 37.9114 151.474 38.6946C152.26 39.4775 152.654 40.6627 152.654 42.2511C152.654 43.4586 152.36 44.5938 151.773 45.6564C151.185 46.7197 150.248 48.0892 148.963 49.7667C147.565 51.6016 146.535 53.0661 145.87 54.1618H148.397C149.528 54.1618 150.564 54.1064 151.506 53.994C152.448 53.8823 152.92 53.8155 152.92 53.7926C152.92 54.9562 152.903 55.7839 152.87 56.2761C152.837 56.7684 152.765 57.1206 152.654 57.3326C152.543 57.546 152.355 57.6518 152.088 57.6518H141.081C140.992 57.383 140.948 57.0369 140.948 56.6115Z" fill="#C0955D"/>
<path fill-rule="evenodd" clip-rule="evenodd" d="M161.3 60.772C160.745 60.616 160.341 60.4253 160.086 60.2018C159.831 59.9775 159.704 59.7761 159.704 59.5978C159.704 58.9049 159.731 58.3399 159.786 57.9036C159.842 57.4672 159.948 57.0262 160.103 56.5778C160.768 57.2268 161.71 57.5515 162.929 57.5515C163.839 57.5515 164.609 57.2779 165.24 56.7291C165.873 56.1817 166.349 55.4827 166.671 54.6324C166.992 53.7818 167.153 52.932 167.153 52.0822C167.153 50.8966 167.042 50.0015 166.82 49.3976C166.599 48.7935 166.189 48.3632 165.59 48.1054C164.991 47.8494 164.082 47.7202 162.863 47.7202C161.865 47.7202 160.878 47.8435 159.903 48.0892L160.934 37.52H171.11C171.11 38.4817 171.071 39.1812 170.994 39.617C170.916 40.0526 170.75 40.361 170.495 40.5395C170.241 40.7193 169.836 40.808 169.282 40.808C168.594 40.808 167.652 40.7805 166.455 40.7246C165.258 40.6687 164.459 40.6298 164.061 40.6069L163.661 44.8006C164.105 44.7116 164.592 44.6666 165.124 44.6666C166.81 44.6666 168.228 45.0982 169.381 45.9586C170.534 46.8198 171.11 48.5478 171.11 51.1422C171.11 54.1852 170.434 56.5898 169.082 58.3567C167.729 60.1229 165.834 61.0078 163.395 61.0078C162.552 61.0078 161.854 60.9282 161.3 60.772Z" fill="#C0955D"/>
<path fill-rule="evenodd" clip-rule="evenodd" d="M188.968 57.2829C188.613 56.9254 188.436 56.3766 188.436 55.6385C188.436 55.4823 188.457 55.2244 188.502 54.8667C189.3 54.8667 189.888 54.4924 190.264 53.7431C190.641 52.9935 190.913 51.8025 191.079 50.1695C191.246 48.5372 191.429 45.796 191.628 41.9491C191.65 41.6129 191.711 41.3787 191.811 41.2447C191.911 41.11 192.172 41.0151 192.593 40.9592C193.013 40.9038 193.735 40.875 194.754 40.875H200.408V56.9805C200.408 57.2493 200.363 57.4169 200.275 57.4843C200.187 57.5509 199.831 57.5961 199.211 57.6183C198.589 57.6403 197.736 57.6519 196.65 57.6519V43.9625H195.087C194.909 47.3844 194.649 50.0968 194.305 52.0987C193.961 54.1006 193.479 55.5551 192.859 56.4607C192.238 57.3665 191.429 57.8196 190.431 57.8196C189.81 57.8196 189.322 57.6403 188.968 57.2829Z" fill="#C0955D"/>
<path fill-rule="evenodd" clip-rule="evenodd" d="M212.729 44.8675C212.496 45.6062 212.357 46.7583 212.313 48.3239C213.555 48.3239 214.386 48.223 214.807 48.0222C214.918 47.687 214.974 47.1045 214.974 46.2776C214.974 45.248 214.896 44.5719 214.741 44.2474C214.586 43.9235 214.287 43.7604 213.844 43.7604C213.333 43.7604 212.962 44.1295 212.729 44.8675ZM218.034 53.4239C218.233 54.0947 218.333 54.9229 218.333 55.9074C218.333 56.5558 217.884 57.0642 216.986 57.4333C216.088 57.8028 214.963 57.9866 213.61 57.9866C211.948 57.9866 210.673 57.4117 209.787 56.2588C208.9 55.1075 208.457 53.0443 208.457 50.0686C208.457 47.5186 208.716 45.5389 209.238 44.1295C209.758 42.7208 210.439 41.7692 211.283 41.2777C212.125 40.7855 213.133 40.5391 214.309 40.5391C217.147 40.5391 218.566 42.3625 218.566 46.0082C218.566 47.955 218.411 49.5427 218.1 50.7736C216.836 51.0416 214.907 51.1978 212.313 51.243C212.38 52.3837 212.568 53.189 212.879 53.6589C213.189 54.1283 213.732 54.364 214.508 54.364C215.573 54.364 216.747 54.051 218.034 53.4239Z" fill="#C0955D"/>
<path fill-rule="evenodd" clip-rule="evenodd" d="M228.509 44.0291H225.35C225.35 43.0008 225.36 42.2898 225.382 41.8985C225.405 41.5074 225.466 41.2387 225.566 41.0932C225.665 40.9478 225.849 40.8745 226.114 40.8745H235.293C235.293 41.9046 235.281 42.6199 235.26 43.0224C235.237 43.4252 235.176 43.6937 235.077 43.8279C234.977 43.9619 234.805 44.0291 234.561 44.0291H232.2V56.98C232.2 57.2272 232.15 57.3894 232.051 57.4669C231.951 57.5455 231.596 57.5954 230.986 57.6182C230.376 57.6406 229.551 57.6513 228.509 57.6513V44.0291Z" fill="#C0955D"/>
<path fill-rule="evenodd" clip-rule="evenodd" d="M256.246 50.9796C255.829 50.5169 255.621 49.8118 255.621 48.8651C255.621 48.0659 255.871 47.3871 256.371 46.8295C256.872 46.2725 257.549 45.9932 258.404 45.9932C259.405 45.9932 260.114 46.2356 260.531 46.7191C260.948 47.2039 261.156 47.9183 261.156 48.8651C261.156 49.665 260.912 50.3323 260.422 50.8691C259.931 51.4058 259.259 51.6737 258.404 51.6737C257.382 51.6737 256.663 51.442 256.246 50.9796Z" fill="#C0955D"/>
<path fill-rule="evenodd" clip-rule="evenodd" d="M284.425 40.8462H297.535V57.4749H294.206V43.6366H287.752V57.4749H284.425V40.8462Z" fill="white"/>
<path fill-rule="evenodd" clip-rule="evenodd" d="M308.297 57.4749V40.8462H320.518V43.6588H311.624V47.3455H319.9V50.1466H311.624V54.673H320.833V57.4749H308.297Z" fill="white"/>
<path fill-rule="evenodd" clip-rule="evenodd" d="M334.733 57.4749V43.6588H329.842V40.8462H342.94V43.6588H338.061V57.4749H334.733Z" fill="white"/>
<path fill-rule="evenodd" clip-rule="evenodd" d="M352.456 57.4749V40.8462H364.677V43.6588H355.783V47.3455H364.058V50.1466H355.783V54.673H364.991V57.4749H352.456Z" fill="white"/>
<path fill-rule="evenodd" clip-rule="evenodd" d="M378.509 43.6595V48.3783H380.331C381.642 48.3783 382.52 48.2909 382.962 48.1173C383.404 47.9428 383.751 47.6708 384.001 47.3003C384.252 46.9295 384.378 46.499 384.378 46.0069C384.378 45.4023 384.202 44.9033 383.85 44.5099C383.497 44.1167 383.052 43.8708 382.512 43.7725C382.115 43.6972 381.316 43.6595 380.117 43.6595H378.509ZM375.182 57.4757V40.8462H380.522C382.546 40.8462 383.865 40.9291 384.479 41.0953C385.424 41.3444 386.214 41.8878 386.852 42.7229C387.489 43.5591 387.808 44.6385 387.808 45.9617C387.808 46.9833 387.623 47.8411 387.256 48.5366C386.889 49.2324 386.422 49.779 385.857 50.1764C385.291 50.5728 384.716 50.8355 384.131 50.9641C383.336 51.1232 382.186 51.2026 380.68 51.2026H378.509V57.4757H375.182Z" fill="white"/>
<path fill-rule="evenodd" clip-rule="evenodd" d="M401.303 54.6845H404.541C405.575 54.6845 406.302 54.6339 406.721 54.5316C407.141 54.4294 407.507 54.197 407.818 53.834C408.129 53.4711 408.284 53.0246 408.284 52.4954C408.284 51.7244 408.013 51.1628 407.469 50.8113C406.926 50.4599 405.998 50.2841 404.687 50.2841H401.303V54.6845ZM397.975 40.8462H410.297V43.6366H401.303V47.4929H405.755C406.984 47.4929 408.003 47.6444 408.813 47.9468C409.623 48.2491 410.314 48.8088 410.887 49.6255C411.461 50.4423 411.747 51.3992 411.747 52.4954C411.747 53.6227 411.459 54.5862 410.882 55.3883C410.304 56.1896 409.647 56.7383 408.909 57.0325C408.17 57.3281 407.119 57.4757 405.755 57.4757H397.975V40.8462Z" fill="white"/>
<path fill-rule="evenodd" clip-rule="evenodd" d="M419.576 40.8462H423.298L427.143 49.478L430.425 40.8462H433.899L428.334 53.4826C427.727 54.8515 427.109 55.8931 426.48 56.607C425.85 57.322 425.037 57.6789 424.039 57.6789C423.058 57.6789 422.289 57.615 421.735 57.4864V54.9909C422.206 55.0212 422.634 55.0361 423.016 55.0361C423.789 55.0361 424.341 54.8946 424.675 54.6104C425.008 54.3276 425.328 53.7169 425.636 52.779L419.576 40.8462Z" fill="white"/>
<path fill-rule="evenodd" clip-rule="evenodd" d="M446.27 43.6595V48.3783H448.092C449.403 48.3783 450.281 48.2909 450.723 48.1173C451.165 47.9428 451.512 47.6708 451.762 47.3003C452.014 46.9295 452.14 46.499 452.14 46.0069C452.14 45.4023 451.963 44.9033 451.611 44.5099C451.259 44.1167 450.813 43.8708 450.273 43.7725C449.876 43.6972 449.078 43.6595 447.878 43.6595H446.27ZM442.943 57.4757V40.8462H448.283C450.307 40.8462 451.626 40.9291 452.24 41.0953C453.185 41.3444 453.976 41.8878 454.613 42.7229C455.25 43.5591 455.569 44.6385 455.569 45.9617C455.569 46.9833 455.385 47.8411 455.017 48.5366C454.65 49.2324 454.183 49.779 453.618 50.1764C453.052 50.5728 452.477 50.8355 451.892 50.9641C451.097 51.1232 449.947 51.2026 448.441 51.2026H446.27V57.4757H442.943Z" fill="white"/>
<path fill-rule="evenodd" clip-rule="evenodd" d="M465.837 40.8462H477.001V43.6366H469.165V57.4749H465.837V40.8462Z" fill="white"/>
<path fill-rule="evenodd" clip-rule="evenodd" d="M496.333 51.3608L499.559 52.3931C499.064 54.2085 498.241 55.5559 497.091 56.4374C495.941 57.3181 494.481 57.7584 492.712 57.7584C490.523 57.7584 488.725 57.0043 487.315 55.4959C485.906 53.9869 485.202 51.9243 485.202 49.3078C485.202 46.5401 485.91 44.39 487.327 42.8589C488.744 41.3282 490.606 40.562 492.915 40.562C494.93 40.562 496.569 41.1627 497.828 42.366C498.577 43.0762 499.139 44.0978 499.514 45.4276L496.22 46.2223C496.025 45.3605 495.618 44.6796 495.001 44.1807C494.382 43.6817 493.63 43.4318 492.746 43.4318C491.524 43.4318 490.533 43.8743 489.772 44.759C489.011 45.6439 488.631 47.0776 488.631 49.0579C488.631 51.1608 489.005 52.6584 489.756 53.5506C490.505 54.4427 491.479 54.8886 492.678 54.8886C493.563 54.8886 494.324 54.6051 494.96 54.038C495.598 53.4711 496.055 52.5788 496.333 51.3608Z" fill="white"/>
<path fill-rule="evenodd" clip-rule="evenodd" d="M509.837 40.8462H513.165V47.9246C513.908 47.8484 514.41 47.6553 514.672 47.3455C514.934 47.0351 515.339 46.1732 515.886 44.7597C516.576 42.9597 517.27 41.8406 517.966 41.4016C518.656 40.9634 519.769 40.7439 521.306 40.7439C521.38 40.7439 521.542 40.7404 521.789 40.7324V43.217L521.317 43.2056C520.635 43.2056 520.137 43.2905 519.821 43.4608C519.507 43.6305 519.251 43.8897 519.057 44.2373C518.861 44.5854 518.574 45.2997 518.191 46.382C517.989 46.9563 517.769 47.4363 517.533 47.8216C517.298 48.2081 516.88 48.5709 516.28 48.9111C517.022 49.1226 517.635 49.5501 518.118 50.1931C518.602 50.8355 519.132 51.7432 519.709 52.9156L521.957 57.4749H518.045L516.078 53.1762C516.048 53.1155 515.984 52.9985 515.886 52.8246C515.849 52.7641 515.711 52.5035 515.47 52.0416C515.043 51.2247 514.693 50.7143 514.419 50.5102C514.146 50.3063 513.728 50.2006 513.165 50.1931V57.4749H509.837V40.8462Z" fill="white"/>
<path fill-rule="evenodd" clip-rule="evenodd" d="M531.249 40.8462H534.363V51.917L541.041 40.8462H544.358V57.4749H541.244V46.6196L534.576 57.4749H531.249V40.8462Z" fill="white"/>
<path fill-rule="evenodd" clip-rule="evenodd" d="M563.78 36.7051H565.32C565.23 37.7333 564.872 38.5413 564.246 39.127C563.621 39.7129 562.809 40.0059 561.812 40.0059C560.816 40.0059 560.004 39.7129 559.378 39.127C558.753 38.5413 558.394 37.7333 558.304 36.7051H559.845C559.897 37.2424 560.085 37.6483 560.407 37.9252C560.73 38.2011 561.197 38.3385 561.812 38.3385C562.427 38.3385 562.895 38.2011 563.218 37.9252C563.54 37.6483 563.728 37.2424 563.78 36.7051ZM555.235 40.8455H558.35V51.917L565.028 40.8455H568.345V57.475H565.23V46.6197L558.563 57.475H555.235V40.8455Z" fill="white"/>
</svg>
