<svg width="530" height="62" viewBox="0 0 530 62" fill="none" xmlns="http://www.w3.org/2000/svg">
<path fill-rule="evenodd" clip-rule="evenodd" d="M70.3929 25.7889C70.3929 26.5331 70.3641 27.461 70.3068 28.2873C69.0546 46.4647 54.2491 61.1192 35.9378 61.2553C16.6446 61.3986 0.963379 45.6607 0.963379 26.2327V22.9595C5.35493 31.3489 14.6798 42.7577 25.8848 42.6508C41.3036 42.5033 58.4584 22.4497 64.874 22.4497C66.4278 22.4497 67.8052 22.9878 69.0519 23.6713C70.1426 24.2691 70.3929 25.0025 70.3929 25.7889Z" fill="#1B1918"/>
<path fill-rule="evenodd" clip-rule="evenodd" d="M69.7521 14.8751C67.6431 13.4584 64.8114 12.1621 61.712 12.9944C55.6159 14.6313 46.9592 20.982 39.176 26.1001C29.5727 32.4142 22.4542 36.4087 16.784 35.6836C11.4929 35.0067 5.66455 26.5809 5.66455 26.5809C5.66455 26.5809 10.7555 29.8785 14.9488 29.5492C18.7849 29.2482 23.4573 27.3957 34.9513 19.5946C46.4465 11.7932 52.9798 8.00013 59.7693 8.83578C66.668 9.68557 69.7521 14.8751 69.7521 14.8751Z" fill="#1B1918"/>
<path fill-rule="evenodd" clip-rule="evenodd" d="M45.3966 1.51953C34.33 3.94096 19.9487 19.3746 10.0052 20.0856C4.78283 20.4593 2.25613 19.0789 0.963379 18.3059V1.51953H45.3966Z" fill="#0086CC"/>
<path fill-rule="evenodd" clip-rule="evenodd" d="M102.278 35.1021H109.522V43.3731H117.46V35.1021H124.737V58.7897H117.46V49.1942H109.522V58.7897H102.278V35.1021Z" fill="white"/>
<path fill-rule="evenodd" clip-rule="evenodd" d="M129.559 35.1021H148.968V40.1631H136.836V43.9333H148.083V48.7618H136.836V53.431H149.33V58.7897H129.559V35.1021Z" fill="white"/>
<path fill-rule="evenodd" clip-rule="evenodd" d="M169.306 36.9209C176.431 37.6771 179.994 40.9079 179.994 46.6139C179.994 52.4432 176.431 55.6849 169.306 56.3399V58.7899H162.713V56.2728C155.588 55.6607 152.024 52.4432 152.024 46.6139C152.024 40.8951 155.588 37.6649 162.713 36.9209V35.1021H169.306V36.9209ZM169.306 51.3774C170.448 51.04 171.338 50.4475 171.966 49.5929C172.597 48.7391 172.91 47.7116 172.91 46.5163C172.91 45.3749 172.589 44.3414 171.944 43.4317C171.295 42.5219 170.413 41.8828 169.306 41.5187V51.3774ZM162.713 51.4427V41.6519C161.64 41.9649 160.762 42.5853 160.101 43.5065C159.442 44.4269 159.107 45.474 159.107 46.645C159.107 47.7425 159.438 48.7311 160.091 49.6057C160.755 50.4757 161.629 51.0865 162.713 51.4427Z" fill="white"/>
<path fill-rule="evenodd" clip-rule="evenodd" d="M181.891 35.1021H203.957V40.9583H196.549V58.7897H189.3V40.9583H181.891V35.1021Z" fill="white"/>
<path fill-rule="evenodd" clip-rule="evenodd" d="M227.965 58.7891V35.1021H215.879C213.636 35.1021 211.92 35.2939 210.738 35.6852C209.553 36.0704 208.598 36.7955 207.872 37.8427C207.145 38.8965 206.783 40.1772 206.783 41.6909C206.783 43.0047 207.064 44.1365 207.619 45.0934C208.17 46.0529 208.935 46.8254 209.915 47.4219C210.532 47.7943 211.384 48.1081 212.46 48.3593C211.597 48.6488 210.971 48.9344 210.575 49.2293C210.315 49.4211 209.927 49.84 209.417 50.4757C208.917 51.1074 208.574 51.5994 208.408 51.9456L204.884 58.7891H213.077L216.954 51.5645C217.444 50.6279 217.883 50.0211 218.272 49.7424C218.788 49.3774 219.386 49.1936 220.047 49.1936H220.688V58.7891H227.965ZM220.688 44.7285H217.618C217.293 44.7285 216.647 44.6187 215.696 44.4032C215.214 44.3097 214.822 44.0619 214.522 43.6584C214.216 43.2558 214.061 42.7998 214.061 42.278C214.061 41.5145 214.305 40.9234 214.783 40.5152C215.265 40.1031 216.166 39.8997 217.495 39.8997H220.688V44.7285Z" fill="white"/>
<path fill-rule="evenodd" clip-rule="evenodd" d="M232.812 35.1021H240.058V43.3731H247.996V35.1021H255.272V58.7897H247.996V49.1942H240.058V58.7897H232.812V35.1021Z" fill="white"/>
<path fill-rule="evenodd" clip-rule="evenodd" d="M259.177 46.9623C259.177 43.0979 260.241 40.0866 262.378 37.935C264.515 35.7789 267.49 34.7051 271.302 34.7051C275.21 34.7051 278.221 35.7629 280.338 37.8764C282.452 39.9929 283.505 42.9599 283.505 46.7697C283.505 49.538 283.046 51.8031 282.125 53.5754C281.201 55.3431 279.861 56.7219 278.117 57.7065C276.368 58.6943 274.192 59.1839 271.585 59.1839C268.943 59.1839 266.753 58.7611 265.011 57.9145C263.279 57.06 261.868 55.7107 260.792 53.8737C259.717 52.0341 259.177 49.7298 259.177 46.9623ZM266.422 46.977C266.422 49.3654 266.865 51.0853 267.747 52.1289C268.632 53.1707 269.833 53.6966 271.353 53.6966C272.91 53.6966 274.122 53.1827 274.977 52.16C275.831 51.1364 276.259 49.3063 276.259 46.6517C276.259 44.4263 275.813 42.7995 274.919 41.7721C274.025 40.7424 272.817 40.2321 271.287 40.2321C269.822 40.2321 268.64 40.7531 267.755 41.7963C266.865 42.8387 266.422 44.567 266.422 46.977Z" fill="white"/>
<path fill-rule="evenodd" clip-rule="evenodd" d="M309.869 35.1021V58.7897H303.047V45.7831L294.321 58.7897H287.441V35.1021H294.294V48.2064L303.086 35.1021H309.869ZM304.559 29.2808C304.333 30.6337 303.681 31.7272 302.613 32.5588C301.54 33.3929 300.262 33.8133 298.781 33.8133C297.306 33.8133 296.03 33.3929 294.95 32.5541C293.875 31.7157 293.229 30.6255 293.016 29.2808H295.771C296.226 30.6255 297.2 31.297 298.715 31.297C300.332 31.297 301.361 30.6255 301.804 29.2808H304.559Z" fill="white"/>
<path fill-rule="evenodd" clip-rule="evenodd" d="M324.019 35.1021H346.085V40.9583H338.677V58.7897H331.427V40.9583H324.019V35.1021Z" fill="white"/>
<path fill-rule="evenodd" clip-rule="evenodd" d="M349.337 35.1021H368.747V40.1631H356.614V43.9333H367.865V48.7618H356.614V53.431H369.108V58.7897H349.337V35.1021Z" fill="white"/>
<path fill-rule="evenodd" clip-rule="evenodd" d="M372.985 35.1021H385.051C387.678 35.1021 389.647 35.7296 390.957 36.9921C392.266 38.2548 392.919 40.0533 392.919 42.385C392.919 44.7796 392.205 46.6537 390.778 47.9984C389.352 49.3511 387.172 50.0205 384.24 50.0205H380.265V58.7897H372.985V35.1021ZM380.265 45.226H382.048C383.462 45.226 384.449 44.9762 385.016 44.4868C385.588 43.9965 385.871 43.3649 385.871 42.6006C385.871 41.856 385.626 41.2289 385.125 40.7105C384.635 40.19 383.706 39.9308 382.34 39.9308H380.265V45.226Z" fill="white"/>
<path fill-rule="evenodd" clip-rule="evenodd" d="M396.63 35.1021H406.199L409.843 49.5154L413.499 35.1021H423.026V58.7897H417.093V40.7308L412.513 58.7897H407.136L402.567 40.7308V58.7897H396.63V35.1021Z" fill="white"/>
<path fill-rule="evenodd" clip-rule="evenodd" d="M450.106 35.1021V58.7897H443.287V45.7831L434.557 58.7897H427.678V35.1021H434.531V48.2064L443.323 35.1021H450.106Z" fill="white"/>
<path fill-rule="evenodd" clip-rule="evenodd" d="M454.992 35.1021H462.236V43.3731H470.173V35.1021H477.451V58.7897H470.173V49.1942H462.236V58.7897H454.992V35.1021Z" fill="white"/>
<path fill-rule="evenodd" clip-rule="evenodd" d="M496.717 54.8856H488.496L487.318 58.7898H479.914L488.748 35.1035H496.689L505.486 58.7898H497.889L496.717 54.8856ZM495.182 49.7593L492.618 41.2453L490.045 49.7593H495.182Z" fill="white"/>
<path fill-rule="evenodd" clip-rule="evenodd" d="M529.352 58.7891H522.107V40.9234H516.436V48.2051C516.436 51.1995 516.275 53.4034 515.965 54.8067C515.646 56.2134 514.908 57.2444 513.751 57.8995C512.593 58.5582 510.725 58.8874 508.136 58.8874C507.352 58.8874 506.442 58.8019 505.417 58.6293V53.8269H506.505C507.484 53.8269 508.175 53.6068 508.579 53.1679C508.983 52.7334 509.189 51.9374 509.189 50.7733V35.1021H529.352V58.7891Z" fill="white"/>
<path fill-rule="evenodd" clip-rule="evenodd" d="M101.948 20.6115C101.948 20.0081 101.998 19.5273 102.098 19.1685C102.197 18.8108 102.435 18.3078 102.812 17.6586C103.588 16.2952 104.775 14.572 106.371 12.4912C107.413 11.1492 108.178 10.0652 108.666 9.23685C109.153 8.40995 109.397 7.62676 109.397 6.88828C109.397 6.3071 109.22 5.86005 108.865 5.54626C108.51 5.23301 108.034 5.07686 107.436 5.07686C106.792 5.07686 106.027 5.17705 105.14 5.37846C104.253 5.57986 103.555 5.82625 103.045 6.1166C102.735 5.4229 102.58 4.51796 102.58 3.3989C102.58 2.88431 103.195 2.44258 104.426 2.07364C105.656 1.70471 107.036 1.51953 108.565 1.51953C110.383 1.51953 111.686 1.91136 112.474 2.69455C113.26 3.47755 113.654 4.66267 113.654 6.25114C113.654 7.45862 113.36 8.59378 112.773 9.65635C112.185 10.7197 111.248 12.0892 109.963 13.7667C108.565 15.6016 107.535 17.0661 106.87 18.1618H109.397C110.528 18.1618 111.564 18.1064 112.506 17.994C113.448 17.8823 113.92 17.8155 113.92 17.7926C113.92 18.9562 113.903 19.7839 113.87 20.2761C113.837 20.7684 113.765 21.1206 113.654 21.3326C113.543 21.546 113.355 21.6518 113.088 21.6518H102.081C101.992 21.383 101.948 21.0369 101.948 20.6115Z" fill="#C0955D"/>
<path fill-rule="evenodd" clip-rule="evenodd" d="M122.3 24.772C121.745 24.616 121.341 24.4253 121.086 24.2018C120.831 23.9775 120.704 23.7761 120.704 23.5978C120.704 22.9049 120.731 22.3399 120.786 21.9036C120.842 21.4672 120.948 21.0262 121.103 20.5778C121.768 21.2268 122.71 21.5515 123.929 21.5515C124.839 21.5515 125.609 21.2779 126.24 20.7291C126.873 20.1817 127.349 19.4827 127.671 18.6324C127.992 17.7818 128.153 16.932 128.153 16.0822C128.153 14.8966 128.042 14.0015 127.82 13.3976C127.599 12.7935 127.189 12.3632 126.59 12.1054C125.991 11.8494 125.082 11.7202 123.863 11.7202C122.865 11.7202 121.878 11.8435 120.903 12.0892L121.934 1.52002H132.11C132.11 2.48165 132.071 3.18122 131.994 3.61695C131.916 4.05255 131.75 4.36095 131.495 4.53946C131.241 4.71925 130.836 4.808 130.282 4.808C129.594 4.808 128.652 4.78053 127.455 4.72457C126.258 4.66868 125.459 4.62976 125.061 4.60687L124.661 8.80059C125.105 8.71164 125.592 8.66659 126.124 8.66659C127.81 8.66659 129.228 9.09815 130.381 9.95858C131.534 10.8198 132.11 12.5478 132.11 15.1422C132.11 18.1852 131.434 20.5898 130.082 22.3567C128.729 24.1229 126.834 25.0078 124.395 25.0078C123.552 25.0078 122.854 24.9282 122.3 24.772Z" fill="#C0955D"/>
<path fill-rule="evenodd" clip-rule="evenodd" d="M149.968 21.2829C149.613 20.9254 149.436 20.3766 149.436 19.6385C149.436 19.4823 149.457 19.2244 149.502 18.8667C150.3 18.8667 150.888 18.4924 151.264 17.7431C151.641 16.9935 151.913 15.8025 152.079 14.1695C152.246 12.5372 152.429 9.79596 152.628 5.94909C152.65 5.61294 152.711 5.37874 152.811 5.24474C152.911 5.11 153.172 5.01513 153.593 4.95917C154.013 4.90382 154.735 4.875 155.754 4.875H161.408V20.9805C161.408 21.2493 161.363 21.4169 161.275 21.4843C161.187 21.5509 160.831 21.5961 160.211 21.6183C159.589 21.6403 158.736 21.6519 157.65 21.6519V7.96245H156.087C155.909 11.3844 155.649 14.0968 155.305 16.0987C154.961 18.1006 154.479 19.5551 153.859 20.4607C153.238 21.3665 152.429 21.8196 151.431 21.8196C150.81 21.8196 150.322 21.6403 149.968 21.2829Z" fill="#C0955D"/>
<path fill-rule="evenodd" clip-rule="evenodd" d="M173.729 8.86754C173.496 9.60622 173.357 10.7583 173.313 12.3239C174.555 12.3239 175.386 12.223 175.807 12.0222C175.918 11.687 175.974 11.1045 175.974 10.2776C175.974 9.24798 175.896 8.57186 175.741 8.24743C175.586 7.92347 175.287 7.76045 174.844 7.76045C174.333 7.76045 173.962 8.12946 173.729 8.86754ZM179.034 17.4239C179.233 18.0947 179.333 18.9229 179.333 19.9074C179.333 20.5558 178.884 21.0642 177.986 21.4333C177.088 21.8028 175.963 21.9866 174.61 21.9866C172.948 21.9866 171.673 21.4117 170.787 20.2588C169.9 19.1075 169.457 17.0443 169.457 14.0686C169.457 11.5186 169.716 9.53888 170.238 8.12945C170.758 6.72077 171.439 5.76924 172.283 5.27775C173.125 4.78551 174.133 4.53906 175.309 4.53906C178.147 4.53906 179.566 6.36247 179.566 10.0082C179.566 11.955 179.411 13.5427 179.1 14.7736C177.836 15.0416 175.907 15.1978 173.313 15.243C173.38 16.3837 173.568 17.189 173.879 17.6589C174.189 18.1283 174.732 18.364 175.508 18.364C176.573 18.364 177.747 18.051 179.034 17.4239Z" fill="#C0955D"/>
<path fill-rule="evenodd" clip-rule="evenodd" d="M189.509 8.0291H186.35C186.35 7.0008 186.36 6.28979 186.382 5.8985C186.405 5.50741 186.466 5.23867 186.566 5.09322C186.665 4.94777 186.849 4.87451 187.114 4.87451H196.293C196.293 5.90463 196.281 6.61988 196.26 7.02242C196.237 7.42516 196.176 7.69369 196.077 7.8279C195.977 7.9619 195.805 8.0291 195.561 8.0291H193.2V20.98C193.2 21.2272 193.15 21.3894 193.051 21.4669C192.951 21.5455 192.596 21.5954 191.986 21.6182C191.376 21.6406 190.551 21.6513 189.509 21.6513V8.0291Z" fill="#C0955D"/>
<path fill-rule="evenodd" clip-rule="evenodd" d="M217.246 14.9796C216.829 14.5169 216.621 13.8118 216.621 12.8651C216.621 12.0659 216.871 11.3871 217.371 10.8295C217.872 10.2725 218.549 9.99316 219.404 9.99316C220.405 9.99316 221.114 10.2356 221.531 10.7191C221.948 11.2039 222.156 11.9183 222.156 12.8651C222.156 13.665 221.912 14.3323 221.422 14.8691C220.931 15.4058 220.259 15.6737 219.404 15.6737C218.382 15.6737 217.663 15.442 217.246 14.9796Z" fill="#C0955D"/>
<path fill-rule="evenodd" clip-rule="evenodd" d="M245.425 4.84619H258.535V21.4749H255.206V7.63662H248.752V21.4749H245.425V4.84619Z" fill="white"/>
<path fill-rule="evenodd" clip-rule="evenodd" d="M269.297 21.4749V4.84619H281.518V7.65878H272.624V11.3455H280.9V14.1466H272.624V18.673H281.833V21.4749H269.297Z" fill="white"/>
<path fill-rule="evenodd" clip-rule="evenodd" d="M295.733 21.4749V7.65878H290.842V4.84619H303.94V7.65878H299.061V21.4749H295.733Z" fill="white"/>
<path fill-rule="evenodd" clip-rule="evenodd" d="M313.456 21.4749V4.84619H325.677V7.65878H316.783V11.3455H325.058V14.1466H316.783V18.673H325.991V21.4749H313.456Z" fill="white"/>
<path fill-rule="evenodd" clip-rule="evenodd" d="M339.509 7.65952V12.3783H341.331C342.642 12.3783 343.52 12.2909 343.962 12.1173C344.404 11.9428 344.751 11.6708 345.001 11.3003C345.252 10.9295 345.378 10.499 345.378 10.0069C345.378 9.40226 345.202 8.90329 344.85 8.50991C344.497 8.11667 344.052 7.87082 343.512 7.77251C343.115 7.69716 342.316 7.65952 341.117 7.65952H339.509ZM336.182 21.4757V4.84619H341.522C343.546 4.84619 344.865 4.92908 345.479 5.09534C346.424 5.34441 347.214 5.88782 347.852 6.72293C348.489 7.55912 348.808 8.63853 348.808 9.96169C348.808 10.9833 348.623 11.8411 348.256 12.5366C347.889 13.2324 347.422 13.779 346.857 14.1764C346.291 14.5728 345.716 14.8355 345.131 14.9641C344.336 15.1232 343.186 15.2026 341.68 15.2026H339.509V21.4757H336.182Z" fill="white"/>
<path fill-rule="evenodd" clip-rule="evenodd" d="M362.303 18.6845H365.541C366.575 18.6845 367.302 18.6339 367.721 18.5316C368.141 18.4294 368.507 18.197 368.818 17.834C369.129 17.4711 369.284 17.0246 369.284 16.4954C369.284 15.7244 369.013 15.1628 368.469 14.8113C367.926 14.4599 366.998 14.2841 365.687 14.2841H362.303V18.6845ZM358.975 4.84619H371.297V7.63663H362.303V11.4929H366.755C367.984 11.4929 369.003 11.6444 369.813 11.9468C370.623 12.2491 371.314 12.8088 371.887 13.6255C372.461 14.4423 372.747 15.3992 372.747 16.4954C372.747 17.6227 372.459 18.5862 371.882 19.3883C371.304 20.1896 370.647 20.7383 369.909 21.0325C369.17 21.3281 368.119 21.4757 366.755 21.4757H358.975V4.84619Z" fill="white"/>
<path fill-rule="evenodd" clip-rule="evenodd" d="M380.576 4.84619H384.298L388.143 13.478L391.425 4.84619H394.899L389.334 17.4826C388.727 18.8515 388.109 19.8931 387.48 20.607C386.85 21.322 386.037 21.6789 385.039 21.6789C384.058 21.6789 383.289 21.615 382.735 21.4864V18.9909C383.206 19.0212 383.634 19.0361 384.016 19.0361C384.789 19.0361 385.341 18.8946 385.675 18.6104C386.008 18.3276 386.328 17.7169 386.636 16.779L380.576 4.84619Z" fill="white"/>
<path fill-rule="evenodd" clip-rule="evenodd" d="M407.27 7.65952V12.3783H409.092C410.403 12.3783 411.281 12.2909 411.723 12.1173C412.165 11.9428 412.512 11.6708 412.762 11.3003C413.014 10.9295 413.14 10.499 413.14 10.0069C413.14 9.40226 412.963 8.90329 412.611 8.50991C412.259 8.11667 411.813 7.87082 411.273 7.77251C410.876 7.69716 410.078 7.65952 408.878 7.65952H407.27ZM403.943 21.4757V4.84619H409.283C411.307 4.84619 412.626 4.92908 413.24 5.09534C414.185 5.34441 414.976 5.88782 415.613 6.72293C416.25 7.55912 416.569 8.63853 416.569 9.96169C416.569 10.9833 416.385 11.8411 416.017 12.5366C415.65 13.2324 415.183 13.779 414.618 14.1764C414.052 14.5728 413.477 14.8355 412.892 14.9641C412.097 15.1232 410.947 15.2026 409.441 15.2026H407.27V21.4757H403.943Z" fill="white"/>
<path fill-rule="evenodd" clip-rule="evenodd" d="M426.837 4.84619H438.001V7.63662H430.165V21.4749H426.837V4.84619Z" fill="white"/>
<path fill-rule="evenodd" clip-rule="evenodd" d="M457.333 15.3608L460.559 16.3931C460.064 18.2085 459.241 19.5559 458.091 20.4374C456.941 21.3181 455.481 21.7584 453.712 21.7584C451.523 21.7584 449.725 21.0043 448.315 19.4959C446.906 17.9869 446.202 15.9243 446.202 13.3078C446.202 10.5401 446.91 8.39004 448.327 6.85887C449.744 5.32824 451.606 4.56201 453.915 4.56201C455.93 4.56201 457.569 5.16272 458.828 6.36603C459.577 7.07623 460.139 8.0978 460.514 9.42763L457.22 10.2223C457.025 9.36049 456.618 8.67958 456.001 8.18069C455.382 7.68172 454.63 7.43183 453.746 7.43183C452.524 7.43183 451.533 7.8743 450.772 8.75904C450.011 9.64391 449.631 11.0776 449.631 13.0579C449.631 15.1608 450.005 16.6584 450.756 17.5506C451.505 18.4427 452.479 18.8886 453.678 18.8886C454.563 18.8886 455.324 18.6051 455.96 18.038C456.598 17.4711 457.055 16.5788 457.333 15.3608Z" fill="white"/>
<path fill-rule="evenodd" clip-rule="evenodd" d="M470.837 4.84615H474.165V11.9246C474.908 11.8484 475.41 11.6553 475.672 11.3455C475.934 11.0351 476.339 10.1732 476.886 8.75969C477.576 6.95971 478.27 5.84065 478.966 5.40161C479.656 4.96338 480.769 4.74387 482.306 4.74387C482.38 4.74387 482.542 4.74043 482.789 4.73242V7.21701L482.317 7.20556C481.635 7.20556 481.137 7.29054 480.821 7.46076C480.507 7.63045 480.251 7.8897 480.057 8.23729C479.861 8.58542 479.574 9.29966 479.191 10.382C478.989 10.9563 478.769 11.4363 478.533 11.8216C478.298 12.2081 477.88 12.5709 477.28 12.9111C478.022 13.1226 478.635 13.5501 479.118 14.1931C479.602 14.8355 480.132 15.7432 480.709 16.9156L482.957 21.4749H479.045L477.078 17.1762C477.048 17.1155 476.984 16.9985 476.886 16.8246C476.849 16.7641 476.711 16.5035 476.47 16.0416C476.043 15.2247 475.693 14.7143 475.419 14.5102C475.146 14.3063 474.728 14.2006 474.165 14.1931V21.4749H470.837V4.84615Z" fill="white"/>
<path fill-rule="evenodd" clip-rule="evenodd" d="M492.249 4.84619H495.363V15.917L502.041 4.84619H505.358V21.4749H502.244V10.6196L495.576 21.4749H492.249V4.84619Z" fill="white"/>
<path fill-rule="evenodd" clip-rule="evenodd" d="M524.78 0.705078H526.32C526.23 1.73331 525.872 2.54128 525.246 3.12704C524.621 3.71287 523.809 4.00586 522.812 4.00586C521.816 4.00586 521.004 3.71287 520.378 3.12704C519.753 2.54128 519.394 1.73331 519.304 0.705078H520.845C520.897 1.24236 521.085 1.64833 521.407 1.92515C521.73 2.2011 522.197 2.33853 522.812 2.33853C523.427 2.33853 523.895 2.2011 524.218 1.92515C524.54 1.64833 524.728 1.24236 524.78 0.705078ZM516.235 4.84554H519.35V15.917L526.028 4.84554H529.345V21.475H526.23V10.6197L519.563 21.475H516.235V4.84554Z" fill="white"/>
</svg>
